<svg width="895" height="864" viewBox="0 0 895 864" fill="none" xmlns="http://www.w3.org/2000/svg">
<g filter="url(#filter0_dii_992_2)">
<path fill-rule="evenodd" clip-rule="evenodd" d="M861.991 262.627C861.991 252.845 861.995 243.062 861.935 233.279C861.886 225.038 861.79 216.799 861.566 208.562C861.079 190.609 860.016 172.502 856.809 154.749C853.557 136.741 848.246 119.98 839.877 103.617C831.65 87.5337 820.903 72.8168 808.08 60.0578C795.26 47.2989 780.475 36.6049 764.317 28.4179C747.866 20.0829 731.015 14.797 712.908 11.56C695.077 8.37199 676.887 7.315 658.856 6.83C650.578 6.607 642.299 6.513 634.018 6.462C624.188 6.402 614.358 6.407 604.528 6.407L490.39 6H405.023L292.905 6.407C283.056 6.407 273.206 6.402 263.357 6.462C255.059 6.513 246.766 6.607 238.471 6.83C220.398 7.315 202.167 8.37299 184.293 11.565C166.163 14.801 149.286 20.0849 132.813 28.4139C116.621 36.6019 101.804 47.2969 88.9571 60.0578C76.112 72.8158 65.3447 87.5297 57.1023 103.61C48.7103 119.981 43.3895 136.752 40.1295 154.77C36.9197 172.516 35.8561 190.617 35.367 208.562C35.1441 216.8 35.0477 225.039 34.9974 233.279C34.9372 243.063 34.432 255.216 34.432 264.999L34.435 375.089L34.432 460.998L34.9422 573.427C34.9422 583.223 34.9382 593.019 34.9974 602.815C35.0477 611.067 35.1441 619.317 35.368 627.566C35.8561 645.542 36.9217 663.675 40.1345 681.452C43.3935 699.484 48.7133 716.269 57.0983 732.653C65.3417 748.759 76.111 763.495 88.9571 776.272C101.803 789.049 116.616 799.757 132.805 807.956C149.288 816.302 166.173 821.595 184.315 824.836C202.18 828.029 220.406 829.088 238.471 829.573C246.766 829.796 255.06 829.891 263.358 829.941C273.207 830.001 283.056 829.997 292.905 829.997L406.037 830H491.615L604.528 829.996C614.358 829.996 624.188 830.001 634.018 829.941C642.299 829.891 650.578 829.796 658.856 829.573C676.894 829.087 695.09 828.027 712.929 824.832C731.025 821.591 747.868 816.3 764.31 807.959C780.471 799.761 795.259 789.051 808.08 776.272C820.901 763.497 831.647 748.763 839.874 732.66C848.248 716.268 853.559 699.475 856.813 681.431C860.017 663.661 861.079 645.535 861.567 627.566C861.79 619.316 861.886 611.066 861.935 602.815C861.996 593.019 861.991 583.223 861.991 573.427C861.991 573.427 861.985 462.983 861.985 460.998V374.999C861.985 373.533 861.991 262.627 861.991 262.627Z" fill="url(#paint0_linear_992_2)"/>
<path fill-rule="evenodd" clip-rule="evenodd" d="M861.991 262.627C861.991 252.845 861.995 243.062 861.935 233.279C861.886 225.038 861.79 216.799 861.566 208.562C861.079 190.609 860.016 172.502 856.809 154.749C853.557 136.741 848.246 119.98 839.877 103.617C831.65 87.5337 820.903 72.8168 808.08 60.0578C795.26 47.2989 780.475 36.6049 764.317 28.4179C747.866 20.0829 731.015 14.797 712.908 11.56C695.077 8.37199 676.887 7.315 658.856 6.83C650.578 6.607 642.299 6.513 634.018 6.462C624.188 6.402 614.358 6.407 604.528 6.407L490.39 6H405.023L292.905 6.407C283.056 6.407 273.206 6.402 263.357 6.462C255.059 6.513 246.766 6.607 238.471 6.83C220.398 7.315 202.167 8.37299 184.293 11.565C166.163 14.801 149.286 20.0849 132.813 28.4139C116.621 36.6019 101.804 47.2969 88.9571 60.0578C76.112 72.8158 65.3447 87.5297 57.1023 103.61C48.7103 119.981 43.3895 136.752 40.1295 154.77C36.9197 172.516 35.8561 190.617 35.367 208.562C35.1441 216.8 35.0477 225.039 34.9974 233.279C34.9372 243.063 34.432 255.216 34.432 264.999L34.435 375.089L34.432 460.998L34.9422 573.427C34.9422 583.223 34.9382 593.019 34.9974 602.815C35.0477 611.067 35.1441 619.317 35.368 627.566C35.8561 645.542 36.9217 663.675 40.1345 681.452C43.3935 699.484 48.7133 716.269 57.0983 732.653C65.3417 748.759 76.111 763.495 88.9571 776.272C101.803 789.049 116.616 799.757 132.805 807.956C149.288 816.302 166.173 821.595 184.315 824.836C202.18 828.029 220.406 829.088 238.471 829.573C246.766 829.796 255.06 829.891 263.358 829.941C273.207 830.001 283.056 829.997 292.905 829.997L406.037 830H491.615L604.528 829.996C614.358 829.996 624.188 830.001 634.018 829.941C642.299 829.891 650.578 829.796 658.856 829.573C676.894 829.087 695.09 828.027 712.929 824.832C731.025 821.591 747.868 816.3 764.31 807.959C780.471 799.761 795.259 789.051 808.08 776.272C820.901 763.497 831.647 748.763 839.874 732.66C848.248 716.268 853.559 699.475 856.813 681.431C860.017 663.661 861.079 645.535 861.567 627.566C861.79 619.316 861.886 611.066 861.935 602.815C861.996 593.019 861.991 583.223 861.991 573.427C861.991 573.427 861.985 462.983 861.985 460.998V374.999C861.985 373.533 861.991 262.627 861.991 262.627Z" fill="url(#paint1_linear_992_2)"/>
</g>
<g filter="url(#filter1_d_992_2)">
<path d="M443.398 533.938L543.887 196.438H641.738L493.203 623H428.75L443.398 533.938ZM350.82 196.438L451.016 533.938L466.25 623H401.211L253.555 196.438H350.82Z" fill="#3A3D47"/>
</g>
<defs>
<filter id="filter0_dii_992_2" x="14.432" y="0" width="867.559" height="864" filterUnits="userSpaceOnUse" color-interpolation-filters="sRGB">
<feFlood flood-opacity="0" result="BackgroundImageFix"/>
<feColorMatrix in="SourceAlpha" type="matrix" values="0 0 0 0 0 0 0 0 0 0 0 0 0 0 0 0 0 0 127 0" result="hardAlpha"/>
<feOffset dy="14"/>
<feGaussianBlur stdDeviation="10"/>
<feColorMatrix type="matrix" values="0 0 0 0 0 0 0 0 0 0 0 0 0 0 0 0 0 0 0.25 0"/>
<feBlend mode="normal" in2="BackgroundImageFix" result="effect1_dropShadow_992_2"/>
<feBlend mode="normal" in="SourceGraphic" in2="effect1_dropShadow_992_2" result="shape"/>
<feColorMatrix in="SourceAlpha" type="matrix" values="0 0 0 0 0 0 0 0 0 0 0 0 0 0 0 0 0 0 127 0" result="hardAlpha"/>
<feOffset dy="4"/>
<feGaussianBlur stdDeviation="1"/>
<feComposite in2="hardAlpha" operator="arithmetic" k2="-1" k3="1"/>
<feColorMatrix type="matrix" values="0 0 0 0 1 0 0 0 0 1 0 0 0 0 1 0 0 0 0.44 0"/>
<feBlend mode="normal" in2="shape" result="effect2_innerShadow_992_2"/>
<feColorMatrix in="SourceAlpha" type="matrix" values="0 0 0 0 0 0 0 0 0 0 0 0 0 0 0 0 0 0 127 0" result="hardAlpha"/>
<feOffset dy="-3"/>
<feGaussianBlur stdDeviation="2"/>
<feComposite in2="hardAlpha" operator="arithmetic" k2="-1" k3="1"/>
<feColorMatrix type="matrix" values="0 0 0 0 0 0 0 0 0 0 0 0 0 0 0 0 0 0 0.25 0"/>
<feBlend mode="normal" in2="effect2_innerShadow_992_2" result="effect3_innerShadow_992_2"/>
</filter>
<filter id="filter1_d_992_2" x="253.555" y="196.438" width="406.184" height="453.562" filterUnits="userSpaceOnUse" color-interpolation-filters="sRGB">
<feFlood flood-opacity="0" result="BackgroundImageFix"/>
<feColorMatrix in="SourceAlpha" type="matrix" values="0 0 0 0 0 0 0 0 0 0 0 0 0 0 0 0 0 0 127 0" result="hardAlpha"/>
<feOffset dx="10" dy="19"/>
<feGaussianBlur stdDeviation="4"/>
<feComposite in2="hardAlpha" operator="out"/>
<feColorMatrix type="matrix" values="0 0 0 0 0 0 0 0 0 0 0 0 0 0 0 0 0 0 0.5 0"/>
<feBlend mode="normal" in2="BackgroundImageFix" result="effect1_dropShadow_992_2"/>
<feBlend mode="normal" in="SourceGraphic" in2="effect1_dropShadow_992_2" result="shape"/>
</filter>
<linearGradient id="paint0_linear_992_2" x1="448.212" y1="6" x2="448.212" y2="830" gradientUnits="userSpaceOnUse">
<stop stop-color="white"/>
<stop offset="1" stop-color="#3A3D47"/>
</linearGradient>
<linearGradient id="paint1_linear_992_2" x1="448.212" y1="6" x2="448.212" y2="830" gradientUnits="userSpaceOnUse">
<stop stop-color="#508C9B" stop-opacity="0.75"/>
<stop offset="1" stop-color="#508C9B"/>
</linearGradient>
</defs>
</svg>
